# xmcd CD database file
#
# Track frame offsets:
#	150
#	8243
#	27142
#	47665
#	58999
#	78082
#
# Disc length: 1424 seconds
#
# Revision: 0
# Processed by: cddbd v1.5.1PL2 Copyright (c) Steve Scherf et al.
# Submitted via: CDex 1.51
#
DISCID=3f058e06
DTITLE=takrockers!! - takrockers!! sample
DYEAR=2006
DGENRE=Game
TTITLE0=強奪ロボ・ゴーダッツ 〜game size〜
TTITLE1=kill the "BASE" 〜from パワーブレイザー〜
TTITLE2=歌劇戦隊ショウレンジャー
TTITLE3=mermaid 〜from 魔界島〜
TTITLE4=遠い約束 〜from クロノトリガー〜
TTITLE5=四魔貴族メドレー 〜from ロマンシング・サガ３〜
EXTD=YEAR: 2006
EXTT0=
EXTT1=
EXTT2=
EXTT3=
EXTT4=
EXTT5=
PLAYORDER=
